<svg width="37" height="37" viewBox="0 0 37 37" fill="none" xmlns="http://www.w3.org/2000/svg">
<path d="M18.5345 22.2726C18.029 22.2726 17.619 21.8637 17.6183 21.3591L17.6066 10.704C17.6059 10.1988 18.0162 9.78857 18.5227 9.78857C19.0282 9.78857 19.4382 10.1975 19.4389 10.7021L19.4506 21.3572C19.4513 21.8627 19.0407 22.2726 18.5345 22.2726Z" fill="url(#paint0_radial_107_886)"/>
<path d="M22.5621 19.2225C22.057 19.2225 21.647 18.8139 21.646 18.3093L21.6388 13.753C21.6378 13.2474 22.0484 12.8372 22.5549 12.8372C23.0601 12.8372 23.4701 13.2458 23.4711 13.7504L23.4783 18.3067C23.4793 18.812 23.0686 19.2225 22.5621 19.2225V19.2225Z" fill="url(#paint1_radial_107_886)"/>
<path d="M14.5016 19.2225C13.9964 19.2225 13.5865 18.8139 13.5854 18.3093L13.5782 13.753C13.5773 13.2474 13.9879 12.8372 14.4944 12.8372C14.9995 12.8372 15.4095 13.2458 15.4105 13.7504L15.4177 18.3067C15.4187 18.812 15.0081 19.2225 14.5016 19.2225V19.2225Z" fill="url(#paint2_radial_107_886)"/>
<path d="M3.91051 20.1727V15.068C3.91051 14.1548 4.01422 13.2553 4.21478 12.3794L6.86102 13.4124C6.86102 13.4124 7.2219 13.5819 7.5975 13.383C7.82391 13.2632 7.99961 13.0666 8.07289 12.8216C9.34433 8.55005 13.6382 5.56723 18.5141 5.56723C23.3842 5.56723 27.6772 8.54579 28.952 12.8108C29.0253 13.0541 29.1967 13.257 29.4257 13.3696C29.6538 13.482 29.9195 13.4941 30.1576 13.4036L32.8159 12.3895C33.0149 13.2625 33.1179 14.1587 33.1179 15.0686V20.1733C33.1179 20.1733 34.1495 20.0988 34.9501 20.4055V15.0686C34.9501 11.0439 33.2252 7.25413 30.0932 4.39764C26.984 1.56147 22.8717 0 18.5137 0C14.1557 0 10.0441 1.56147 6.93421 4.39697C3.80209 7.25338 2.07727 11.0432 2.07727 15.0679V20.3961C2.07727 20.3961 3.08697 20.0691 3.90947 20.1727L3.91051 20.1727Z" fill="url(#paint3_radial_107_886)"/>
<path d="M2.91938 34.3471V22.8359C2.91938 22.5691 2.94424 22.3081 2.98939 22.0537C1.2969 22.3565 0 23.9839 0 25.9405V31.0792C0 33.0257 1.28317 34.6456 2.96259 34.9608C2.93511 34.7599 2.9194 34.5551 2.9194 34.3468L2.91938 34.3471Z" fill="url(#paint4_radial_107_886)"/>
<path d="M7.51562 36.9983C8.98038 36.9983 10.1723 35.8085 10.1723 34.3463V22.8351C10.1723 21.3729 8.98046 20.1831 7.51562 20.1831C7.51562 20.1831 5.04938 19.9986 4.7533 22.8351V34.3463C4.7533 34.3463 4.76246 36.9356 7.51562 36.9983Z" fill="url(#paint5_radial_107_886)"/>
<path d="M34.0411 22.0576C34.0856 22.3101 34.1098 22.5691 34.1098 22.8339V34.3452C34.1098 34.5516 34.0945 34.7541 34.0673 34.9533C35.7323 34.6247 37.0005 33.0123 37.0005 31.0776V25.9389C37.0008 23.994 35.7193 22.3748 34.0412 22.058L34.0411 22.0576Z" fill="url(#paint6_radial_107_886)"/>
<path d="M29.6199 20.1846C31.0846 20.1846 32.2766 21.3743 32.2766 22.8366V34.3478C32.2766 35.8099 31.0847 36.9998 29.6199 36.9998C26.9072 36.937 26.8575 34.3478 26.8575 34.3478V22.8366C26.8575 22.8366 26.849 20.3038 29.6199 20.1846Z" fill="url(#paint7_radial_107_886)"/>
<defs>
<radialGradient id="paint0_radial_107_886" cx="0" cy="0" r="1" gradientTransform="matrix(1.74141 7.0747 -0.389045 64.4917 17.6733 11.5212)" gradientUnits="userSpaceOnUse">
<stop stop-color="#8CDFF4"/>
<stop offset="1" stop-color="#3071E1"/>
</radialGradient>
<radialGradient id="paint1_radial_107_886" cx="0" cy="0" r="1" gradientTransform="matrix(1.73709 3.61854 -0.38808 32.9859 21.7054 13.7234)" gradientUnits="userSpaceOnUse">
<stop stop-color="#8CDFF4"/>
<stop offset="1" stop-color="#3071E1"/>
</radialGradient>
<radialGradient id="paint2_radial_107_886" cx="0" cy="0" r="1" gradientTransform="matrix(1.73709 3.61854 -0.38808 32.9859 13.6448 13.7234)" gradientUnits="userSpaceOnUse">
<stop stop-color="#8CDFF4"/>
<stop offset="1" stop-color="#3071E1"/>
</radialGradient>
<radialGradient id="paint3_radial_107_886" cx="0" cy="0" r="1" gradientTransform="matrix(31.043 11.5638 -6.93525 105.414 3.26742 2.83196)" gradientUnits="userSpaceOnUse">
<stop stop-color="#8CDFF4"/>
<stop offset="1" stop-color="#3071E1"/>
</radialGradient>
<radialGradient id="paint4_radial_107_886" cx="0" cy="0" r="1" gradientTransform="matrix(2.82299 7.31445 -0.630678 66.6772 0.10823 23.845)" gradientUnits="userSpaceOnUse">
<stop stop-color="#8CDFF4"/>
<stop offset="1" stop-color="#3071E1"/>
</radialGradient>
<radialGradient id="paint5_radial_107_886" cx="0" cy="0" r="1" gradientTransform="matrix(5.11738 9.53057 -1.14326 86.8789 4.94949 22.5146)" gradientUnits="userSpaceOnUse">
<stop stop-color="#8CDFF4"/>
<stop offset="1" stop-color="#3071E1"/>
</radialGradient>
<radialGradient id="paint6_radial_107_886" cx="0" cy="0" r="1" gradientTransform="matrix(2.79463 7.30799 -0.624344 66.6183 34.1483 23.8473)" gradientUnits="userSpaceOnUse">
<stop stop-color="#8CDFF4"/>
<stop offset="1" stop-color="#3071E1"/>
</radialGradient>
<radialGradient id="paint7_radial_107_886" cx="0" cy="0" r="1" gradientTransform="matrix(5.11738 9.52918 -1.14327 86.8663 27.0537 22.5182)" gradientUnits="userSpaceOnUse">
<stop stop-color="#8CDFF4"/>
<stop offset="1" stop-color="#3071E1"/>
</radialGradient>
</defs>
</svg>
