<svg width="35" height="35" viewBox="0 0 35 35" fill="none" xmlns="http://www.w3.org/2000/svg">
<path d="M26.25 11.666C28.6662 11.666 30.625 9.70726 30.625 7.29102C30.625 4.87477 28.6662 2.91602 26.25 2.91602C23.8338 2.91602 21.875 4.87477 21.875 7.29102C21.875 9.70726 23.8338 11.666 26.25 11.666Z" stroke="url(#paint0_radial_10_578)" stroke-width="2.91667" stroke-linecap="round" stroke-linejoin="round"/>
<path d="M8.75 21.875C11.1662 21.875 13.125 19.9162 13.125 17.5C13.125 15.0838 11.1662 13.125 8.75 13.125C6.33375 13.125 4.375 15.0838 4.375 17.5C4.375 19.9162 6.33375 21.875 8.75 21.875Z" stroke="url(#paint1_radial_10_578)" stroke-width="2.91667" stroke-linecap="round" stroke-linejoin="round"/>
<path d="M26.25 32.084C28.6662 32.084 30.625 30.1252 30.625 27.709C30.625 25.2927 28.6662 23.334 26.25 23.334C23.8338 23.334 21.875 25.2927 21.875 27.709C21.875 30.1252 23.8338 32.084 26.25 32.084Z" stroke="url(#paint2_radial_10_578)" stroke-width="2.91667" stroke-linecap="round" stroke-linejoin="round"/>
<path d="M12.5269 19.7024L22.4873 25.5066" stroke="url(#paint3_radial_10_578)" stroke-width="2.91667" stroke-linecap="round" stroke-linejoin="round"/>
<path d="M22.4727 9.49341L12.5269 15.2976" stroke="url(#paint4_radial_10_578)" stroke-width="2.91667" stroke-linecap="round" stroke-linejoin="round"/>
<defs>
<radialGradient id="paint0_radial_10_578" cx="0" cy="0" r="1" gradientTransform="matrix(8.26292 4.95863 -1.846 45.202 22.1918 4.13037)" gradientUnits="userSpaceOnUse">
<stop stop-color="#8CDFF4"/>
<stop offset="1" stop-color="#3071E1"/>
</radialGradient>
<radialGradient id="paint1_radial_10_578" cx="0" cy="0" r="1" gradientTransform="matrix(8.26292 4.95863 -1.846 45.202 4.69179 14.3394)" gradientUnits="userSpaceOnUse">
<stop stop-color="#8CDFF4"/>
<stop offset="1" stop-color="#3071E1"/>
</radialGradient>
<radialGradient id="paint2_radial_10_578" cx="0" cy="0" r="1" gradientTransform="matrix(8.26292 4.95863 -1.846 45.202 22.1918 24.5483)" gradientUnits="userSpaceOnUse">
<stop stop-color="#8CDFF4"/>
<stop offset="1" stop-color="#3071E1"/>
</radialGradient>
<radialGradient id="paint3_radial_10_578" cx="0" cy="0" r="1" gradientTransform="matrix(9.40596 3.28923 -2.10137 29.984 12.8875 20.5079)" gradientUnits="userSpaceOnUse">
<stop stop-color="#8CDFF4"/>
<stop offset="1" stop-color="#3071E1"/>
</radialGradient>
<radialGradient id="paint4_radial_10_578" cx="0" cy="0" r="1" gradientTransform="matrix(9.39219 3.28923 -2.09829 29.984 12.8869 10.2989)" gradientUnits="userSpaceOnUse">
<stop stop-color="#8CDFF4"/>
<stop offset="1" stop-color="#3071E1"/>
</radialGradient>
</defs>
</svg>
