<svg width="36" height="36" viewBox="0 0 36 36" fill="none" xmlns="http://www.w3.org/2000/svg">
<path d="M23.9988 31.5V28.5C23.9988 26.9087 23.3667 25.3826 22.2415 24.2574C21.1163 23.1321 19.5901 22.5 17.9988 22.5H8.99884C7.40754 22.5 5.88142 23.1321 4.7562 24.2574C3.63098 25.3826 2.99884 26.9087 2.99884 28.5V31.5" stroke="#0088FF" stroke-width="3" stroke-linecap="round" stroke-linejoin="round"/>
<path d="M13.4988 16.5C16.8125 16.5 19.4988 13.8137 19.4988 10.5C19.4988 7.18629 16.8125 4.5 13.4988 4.5C10.1851 4.5 7.49884 7.18629 7.49884 10.5C7.49884 13.8137 10.1851 16.5 13.4988 16.5Z" stroke="#0088FF" stroke-width="3" stroke-linecap="round" stroke-linejoin="round"/>
<path d="M28.5012 12.0005V21.0005" stroke="#0088FF" stroke-width="3" stroke-linecap="round" stroke-linejoin="round"/>
<path d="M33.0012 16.5005H24.0012" stroke="#0088FF" stroke-width="3" stroke-linecap="round" stroke-linejoin="round"/>
</svg>
