<svg width="120" height="87" viewBox="0 0 120 87" fill="none" xmlns="http://www.w3.org/2000/svg">
<path d="M43.1563 7.19284C40.2948 7.19284 37.5506 8.32954 35.5272 10.3529C33.5039 12.3762 32.3672 15.1205 32.3672 17.9819V43.1564C32.3672 46.0179 33.5039 48.7621 35.5272 50.7855C37.5506 52.8088 40.2948 53.9455 43.1563 53.9455C46.0177 53.9455 48.762 52.8088 50.7853 50.7855C52.8086 48.7621 53.9453 46.0179 53.9453 43.1564V17.9819C53.9453 15.1205 52.8086 12.3762 50.7853 10.3529C48.762 8.32954 46.0177 7.19284 43.1563 7.19284Z" stroke="white" stroke-width="5.39454" stroke-linecap="round" stroke-linejoin="round"/>
<path d="M68.3307 35.9637V43.1564C68.3307 49.8331 65.6784 56.2364 60.9573 60.9575C56.2361 65.6786 49.8329 68.3309 43.1562 68.3309C36.4795 68.3309 30.0763 65.6786 25.3551 60.9575C20.634 56.2364 17.9817 49.8331 17.9817 43.1564V35.9637" stroke="white" stroke-width="5.39454" stroke-linecap="round" stroke-linejoin="round"/>
<path d="M43.1562 68.3309V79.12" stroke="white" stroke-width="5.39454" stroke-linecap="round" stroke-linejoin="round"/>
<g opacity="0.684282">
<path d="M119.56 64.6053C119.56 66.5915 117.95 68.2016 115.964 68.2016V68.2016C113.977 68.2016 112.367 66.5915 112.367 64.6053L112.367 50.2198C112.367 48.2336 113.977 46.6235 115.964 46.6235V46.6235C117.95 46.6235 119.56 48.2336 119.56 50.2198L119.56 64.6053Z" fill="white"/>
</g>
<g opacity="0.578864">
<path d="M108.771 64.6052C108.771 66.5914 107.161 68.2016 105.175 68.2016V68.2016C103.188 68.2016 101.578 66.5914 101.578 64.6052L101.578 35.8343C101.578 33.8481 103.188 32.238 105.175 32.238V32.238C107.161 32.238 108.771 33.8481 108.771 35.8343L108.771 64.6052Z" fill="white"/>
</g>
<g opacity="0.515427">
<path d="M97.9819 64.6052C97.9819 66.5914 96.3718 68.2016 94.3856 68.2016V68.2016C92.3994 68.2016 90.7892 66.5914 90.7892 64.6052L90.7892 43.0271C90.7892 41.0408 92.3994 39.4307 94.3856 39.4307V39.4307C96.3718 39.4307 97.9819 41.0408 97.9819 43.0271L97.9819 64.6052Z" fill="white"/>
</g>
<g opacity="0.500943">
<path d="M87.1928 64.6052C87.1928 66.5914 85.5827 68.2016 83.5965 68.2016V68.2016C81.6102 68.2016 80.0001 66.5914 80.0001 64.6052L80.0001 28.6416C80.0001 26.6554 81.6102 25.0453 83.5965 25.0453V25.0453C85.5827 25.0453 87.1928 26.6554 87.1928 28.6416L87.1928 64.6052Z" fill="white"/>
</g>
</svg>
